<?xml version="1.0" encoding="UTF-8" standalone="no"?>
<svg
   xmlns:dc="http://purl.org/dc/elements/1.1/"
   xmlns:cc="http://creativecommons.org/ns#"
   xmlns:rdf="http://www.w3.org/1999/02/22-rdf-syntax-ns#"
   xmlns:svg="http://www.w3.org/2000/svg"
   xmlns="http://www.w3.org/2000/svg"
   xmlns:sodipodi="http://sodipodi.sourceforge.net/DTD/sodipodi-0.dtd"
   xmlns:inkscape="http://www.inkscape.org/namespaces/inkscape"
   width="108"
   height="108"
   viewBox="0 0 28.574999 28.575001"
   version="1.1"
   id="svg867"
   sodipodi:docname="icon_adaptative_foreground.svg"
   inkscape:version="1.0.1 (3bc2e813f5, 2020-09-07)">
  <defs
     id="defs861" />
  <sodipodi:namedview
     id="base"
     pagecolor="#ffffff"
     bordercolor="#666666"
     borderopacity="1.0"
     inkscape:pageopacity="0.0"
     inkscape:pageshadow="2"
     inkscape:zoom="4.26"
     inkscape:cx="25.439233"
     inkscape:cy="44.966045"
     inkscape:document-units="px"
     inkscape:current-layer="layer1"
     showgrid="false"
     units="px"
     inkscape:window-width="1920"
     inkscape:window-height="1015"
     inkscape:window-x="0"
     inkscape:window-y="28"
     inkscape:window-maximized="1"
     showguides="true"
     inkscape:guide-bbox="true"
     inkscape:document-rotation="0"
     inkscape:pagecheckerboard="true">
    <sodipodi:guide
       position="4.7625,19.644311"
       orientation="1,0"
       id="guide851"
       inkscape:locked="false"
       inkscape:label=""
       inkscape:color="rgb(0,0,255)" />
    <sodipodi:guide
       position="-19.711127,4.7625"
       orientation="0,1"
       id="guide853"
       inkscape:locked="false"
       inkscape:label=""
       inkscape:color="rgb(0,0,255)" />
    <sodipodi:guide
       position="-20.91384,23.8125"
       orientation="0,1"
       id="guide855"
       inkscape:locked="false"
       inkscape:label=""
       inkscape:color="rgb(0,0,255)" />
    <sodipodi:guide
       position="23.8125,18.842114"
       orientation="-1,0"
       id="guide846"
       inkscape:label=""
       inkscape:locked="false"
       inkscape:color="rgb(0,0,255)" />
  </sodipodi:namedview>
  <metadata
     id="metadata864">
    <rdf:RDF>
      <cc:Work
         rdf:about="">
        <dc:format>image/svg+xml</dc:format>
        <dc:type
           rdf:resource="http://purl.org/dc/dcmitype/StillImage" />
        <dc:title></dc:title>
      </cc:Work>
    </rdf:RDF>
  </metadata>
  <g
     inkscape:label="Layer 1"
     inkscape:groupmode="layer"
     id="layer1"
     transform="translate(0,-268.42498)">
    <g
       id="g944"
       transform="matrix(0.10712528,0,0,0.10631087,3.7480305,271.76203)">
      <path
         id="path67"
         style="fill:#ffc82f;fill-opacity:1;stroke-width:0.247948"
         d="m 98.04783,86.450588 a 27,27.000001 0 0 1 -27,26.999992 27,27.000001 0 0 1 -27,-26.999992 27,27.000001 0 0 1 27,-26.999999 27,27.000001 0 0 1 27,26.999999 z" />
      <path
         style="fill:#ffffff;stroke:none;stroke-width:0.314472px;stroke-linecap:butt;stroke-linejoin:miter;stroke-opacity:1"
         d="m 72.928588,146.55755 h 64.512142 c 0,0 14.98954,-2.19246 15.2732,-13.95256 0.29053,-12.04517 -8.20649,-15.76754 -8.20649,-15.76754 0,0 -0.23908,-15.49161 -11.16994,-24.955824 -9.13044,-7.905339 -21.50228,-9.639422 -33.395882,-4.083679 -9.797705,4.576711 -15.729103,17.809373 -15.729103,17.809373 0,0 -13.53243,-7.21336 -25.531311,3.97024 -5.982676,5.57619 -7.378797,16.38864 -4.559162,24.04834 4.377581,11.89195 18.806546,12.93165 18.806546,12.93165 z"
         id="path51"
         sodipodi:nodetypes="ccscsscssc" />
    </g>
  </g>
</svg>
