<?xml version="1.0" encoding="UTF-8" standalone="no"?>
<svg
   xmlns:dc="http://purl.org/dc/elements/1.1/"
   xmlns:cc="http://creativecommons.org/ns#"
   xmlns:rdf="http://www.w3.org/1999/02/22-rdf-syntax-ns#"
   xmlns:svg="http://www.w3.org/2000/svg"
   xmlns="http://www.w3.org/2000/svg"
   xmlns:sodipodi="http://sodipodi.sourceforge.net/DTD/sodipodi-0.dtd"
   xmlns:inkscape="http://www.inkscape.org/namespaces/inkscape"
   version="1.1"
   width="24"
   height="24"
   viewBox="0 0 24.00 24.00"
   enable-background="new 0 0 24.00 24.00"
   xml:space="preserve"
   id="svg4"
   sodipodi:docname="sun.svg"
   inkscape:version="1.0 (4035a4fb49, 2020-05-01)"><metadata
   id="metadata10"><rdf:RDF><cc:Work
       rdf:about=""><dc:format>image/svg+xml</dc:format><dc:type
         rdf:resource="http://purl.org/dc/dcmitype/StillImage" /><dc:title></dc:title></cc:Work></rdf:RDF></metadata><defs
   id="defs8" /><sodipodi:namedview
   inkscape:pagecheckerboard="true"
   inkscape:document-rotation="0"
   pagecolor="#ffffff"
   bordercolor="#666666"
   borderopacity="1"
   objecttolerance="10"
   gridtolerance="10"
   guidetolerance="10"
   inkscape:pageopacity="0"
   inkscape:pageshadow="2"
   inkscape:window-width="1920"
   inkscape:window-height="1015"
   id="namedview6"
   showgrid="false"
   inkscape:zoom="28.690764"
   inkscape:cx="7.2103428"
   inkscape:cy="14.09417"
   inkscape:window-x="0"
   inkscape:window-y="28"
   inkscape:window-maximized="1"
   inkscape:current-layer="svg4" />
	<path
   style="fill:#ffffff;stroke-width:1.10784"
   sodipodi:nodetypes="ccccccccccccccccccc"
   d="M 12.000866,1 9.3294849,4.7623647 C 8.4879724,5.0894762 7.6723645,5.5417183 6.9849517,6.111745 L 2.346,6.5114029 4.3135782,10.673423 c -0.1952392,0.923248 -0.1458197,1.822616 0.0088,2.683731 l -1.9653987,4.155575 4.6389512,0.39965 c 0.4878127,0.53593 1.8056466,1.120764 2.3162073,1.310696 l 2.664843,3.755925 2.649576,-3.73228 c 0.824655,-0.384429 1.611144,-0.850246 2.36851,-1.351526 l 4.638926,-0.399669 -1.9545,-4.134085 c 0.198403,-0.932311 0.112176,-1.83593 0.0043,-2.707356 L 21.647,6.5049555 17.005871,6.1052994 C 16.234875,5.2845337 15.557787,4.9993088 14.672228,4.7623642 Z"
   id="path21" />
<path
   sodipodi:nodetypes="sssssccsccccccccccccccccccccccccscc"
   id="path7"
   d="m 12,7 c 2.7614,0 5,2.23858 5,5 0,2.7614 -2.2386,5 -5,5 C 9.23857,17 7,14.7614 7,12 7,9.23858 9.23857,7 12,7 Z m 0,-4.99998 2.3941,3.42009 C 13.6471,5.14828 12.8409,5.00001 12,5.00001 c -0.8409,0 -1.6472,0.14827 -2.39407,0.4201 z M 3.34495,7.00902 7.50388,6.64575 C 6.89501,7.15668 6.36348,7.78079 5.94303,8.50902 5.52258,9.23726 5.24786,10.0096 5.10981,10.7924 Z M 3.35537,17.009 5.12022,13.2257 c 0.13805,0.7827 0.41278,1.5551 0.83322,2.2833 0.42045,0.7283 0.95199,1.3524 1.56085,1.8633 z M 20.646,7.00382 18.8812,10.7872 C 18.7431,10.0044 18.4684,9.23205 18.0479,8.50382 17.6275,7.77559 17.096,7.15148 16.4871,6.64054 Z m -0.0104,9.98958 -4.1589,0.3633 c 0.6088,-0.511 1.1404,-1.1351 1.5608,-1.8633 0.4205,-0.7282 0.6952,-1.5006 0.8332,-2.2834 z m -8.6564,4.9858 -2.39411,-3.4201 c 0.74691,0.2718 1.55321,0.4201 2.39411,0.4201 0.8409,0 1.6471,-0.1483 2.394,-0.4201 z"
   stroke-linejoin="round"
   stroke-width="0.2"
   fill-opacity="1"
   fill="#000000" /></svg>
